<?xml version="1.0" encoding="UTF-8"?>
<svg id="Calque_1" xmlns="http://www.w3.org/2000/svg" version="1.1" viewBox="0 0 533.15 182.87">
  <defs>
    <style>
      .st0, .st1 {
        fill: currentColor;
      }

      .st1 {
        fill-rule: evenodd;
      }
    </style>
  </defs>
  <g>
    <path class="st0" d="M99.71,82.55c.49.1.9.36,1.23.79.33.43.44.89.35,1.38-.1.49-.38.9-.84,1.23-10.19,7.3-19.49,14.2-27.9,20.71.85,2.69.95,5.65.3,8.87-1.05,5.32-2.98,10.52-5.77,15.58-2.79,5.06-5.98,9.5-9.56,13.31-3.58,3.81-7.36,7.2-11.34,10.16-3.98,2.96-7.76,5.23-11.34,6.8-3.58,1.58-6.72,2.46-9.42,2.66-.39.06-.76.1-1.08.1-3.16,0-5.16-1.18-6.01-3.55-1.51-4.14,2-10.94,10.55-20.41,8.54-9.47,21.56-21.04,39.05-34.71-1.97-3.61-5.85-6.95-11.64-10.01-5.79-3.06-14.92-7.11-27.41-12.18-3.42-1.38-6.05-2.47-7.89-3.25-4.73-1.97-8.02-4.63-9.86-7.99-1.84-3.35-2.07-7.2-.69-11.54,1.71-5.52,5.85-11.52,12.42-18,6.57-6.47,13.76-12.14,21.54-17.01,7.79-4.86,15.64-8.74,23.57-11.64,7.92-2.89,14.05-3.85,18.39-2.86.99.2,1.89.51,2.71.94.82.43,1.66,1.07,2.51,1.92.85.86,1.46,2.02,1.82,3.5.36,1.48.41,3.24.15,5.28-.07.33-.2.63-.39.89-.2.26-.46.46-.79.59-.33.13-.66.17-.99.1-.53-.06-.95-.31-1.28-.74-.33-.43-.46-.9-.39-1.43.39-2.43.18-4.17-.64-5.23-.82-1.05-1.99-1.74-3.5-2.07-2.43-.59-5.72-.39-9.86.59-4.14.99-8.76,2.65-13.85,4.98-5.1,2.33-10.27,5.21-15.53,8.63-8.48,5.32-15.61,10.91-21.4,16.76-5.79,5.85-9.4,11.14-10.85,15.88-2.17,6.77.62,11.77,8.38,14.99,1.77.72,4.4,1.77,7.89,3.16,4.34,1.77,7.56,3.11,9.66,3.99,2.1.89,4.86,2.07,8.28,3.55,3.42,1.48,6.05,2.75,7.89,3.8,1.84,1.05,3.85,2.27,6.01,3.65,2.17,1.38,3.94,2.75,5.32,4.09,1.38,1.35,2.53,2.78,3.45,4.29,8.28-6.44,17.39-13.18,27.31-20.21.46-.33.94-.44,1.43-.35ZM69.19,114.75c.39-1.97.43-3.81.1-5.52-14,10.98-25.11,20.64-33.33,28.99-4.8,4.93-8.48,9.32-11.04,13.16-2.56,3.85-3.58,6.49-3.06,7.94.26.79,1.35,1.12,3.25.99,2.23-.2,4.98-1.02,8.23-2.46,3.25-1.45,6.74-3.55,10.45-6.31,3.71-2.76,7.26-5.9,10.65-9.42,3.38-3.52,6.42-7.69,9.12-12.52,2.69-4.83,4.57-9.78,5.62-14.84Z"/>
    <path class="st0" d="M130.42,83.98c.53-.06,1,.07,1.43.39.43.33.67.76.74,1.28.06.53-.07.99-.39,1.38-2.7,3.49-5.92,6.21-9.66,8.18-3.75,1.97-7.26,2.6-10.55,1.87-.92,2.24-2.2,3.99-3.85,5.28-1.64,1.28-3.35,1.92-5.13,1.92h-.1c-1.77-.06-3.34-.67-4.68-1.82-1.35-1.15-2.28-2.74-2.81-4.78-.85-3.22-.71-6.29.44-9.22,1.15-2.92,2.81-5.08,4.98-6.46.46-.33.99-.39,1.58-.2.59-1.44,1.43-2.56,2.51-3.35,1.08-.79,2.22-1.08,3.4-.89.66.13,1.26.41,1.82.84.56.43,1.12,1.1,1.68,2.02.56.92.97,2.33,1.23,4.24.26,1.91.33,4.18.2,6.8-.07.66-.17,1.32-.3,1.97,2.5.53,5.28-.1,8.33-1.87s5.67-4.08,7.84-6.9c.33-.39.75-.62,1.28-.69ZM103.01,100.45c.92,0,1.89-.43,2.91-1.28,1.02-.85,1.86-2,2.51-3.45-4.27-2.37-6.51-5.59-6.71-9.66-1.32,1.25-2.22,2.93-2.71,5.03-.49,2.1-.48,3.94.05,5.52.72,2.56,2.04,3.85,3.94,3.85ZM109.42,91.28c.13-1.58.15-2.94.05-4.09-.1-1.15-.21-2.09-.35-2.81-.13-.72-.3-1.31-.49-1.77-.2-.46-.38-.79-.54-.99-.17-.2-.28-.3-.35-.3h-.1c-.26,0-.59.21-.99.64-.39.43-.69,1-.89,1.73-.39,1.38-.33,2.79.2,4.24.53,1.45,1.68,2.76,3.45,3.94v-.59Z"/>
    <path class="st0" d="M147.68,79.74c.53-.06,1,.07,1.43.39.43.33.67.76.74,1.28.06.53-.07.99-.39,1.38-.33.39-.76.63-1.28.69-4.8.66-9.27,1.18-13.41,1.58-3.81,15.71-7.36,31.52-10.65,47.43-3.29,15.91-5.42,27.28-6.41,34.12h.3c.46.2.81.54,1.04,1.04.23.49.25.97.05,1.43-.39,1.12-.71,1.96-.94,2.51-.23.56-.57,1.1-1.04,1.63-.46.53-.95.79-1.48.79-.2,0-.39-.03-.59-.1-.99-.26-1.49-1.13-1.53-2.61-.03-1.48.41-5.14,1.33-10.99,1.18-7.1,2.99-16.37,5.42-27.81,3.22-15.71,6.74-31.42,10.55-47.13-2.24.2-4.86.43-7.89.69h-.2c-.33,0-.62-.08-.89-.25-.26-.16-.48-.38-.64-.64-.16-.26-.28-.56-.35-.89,0-.53.17-.99.49-1.38.33-.39.76-.62,1.28-.69,3.68-.26,6.71-.49,9.07-.69,1.71-6.84,3.29-13.05,4.73-18.64.59-2.3,1.26-4.68,2.02-7.15.76-2.46,1.76-5.42,3.01-8.87,1.25-3.45,2.6-6.31,4.04-8.58,1.45-2.27,2.83-3.5,4.14-3.7,1.12-.2,2,.2,2.66,1.18,1.58,2.37.77,7.56-2.42,15.58-3.19,8.02-7.48,16.3-12.87,24.85-.07.07-.1.13-.1.2-.33,1.25-.72,2.83-1.18,4.73,3.55-.33,7.53-.79,11.93-1.38ZM149.15,39.81c-2.89,4.34-5.85,12.1-8.87,23.27,5.26-9.86,8.22-17.62,8.87-23.27Z"/>
    <path class="st0" d="M177.5,83.19c.49-.13.97-.06,1.43.2.46.26.74.66.84,1.18.1.53.02,1.02-.25,1.48-1.84,2.89-4.06,5.9-6.66,9.02-2.6,3.12-5.52,5.93-8.78,8.43-3.25,2.5-6,3.75-8.23,3.75-.79,0-1.48-.13-2.07-.39-4.4-1.91-4.86-9.63-1.38-23.17.13-.53.43-.92.89-1.18.46-.26.94-.33,1.43-.2.49.13.87.43,1.13.89.26.46.33.92.2,1.38-.79,3.16-1.36,5.93-1.73,8.33-.36,2.4-.53,4.22-.49,5.47.03,1.25.16,2.28.39,3.11.23.82.43,1.32.59,1.48.16.16.31.28.44.35,1.71.72,4.81-.99,9.32-5.13,4.5-4.14,8.4-8.87,11.68-14.2.33-.39.74-.66,1.23-.79ZM155.66,75.5c-1.91-.13-2.5-.92-1.77-2.37.66-1.18,1.51-1.97,2.56-2.37,1.64-.53,2.63-.1,2.96,1.28.33,1.32-.16,2.3-1.48,2.96-.66.33-1.41.49-2.27.49Z"/>
    <path class="st0" d="M214.87,83.83c.49-.16.97-.13,1.43.1.46.23.77.59.94,1.08.16.49.15.97-.05,1.43-7.04,14.53-13.31,21.79-18.83,21.79-.33,0-.69-.03-1.08-.1-4.41-.86-7.13-6.77-8.18-17.75-3.22,4.34-6.08,7.89-8.58,10.65-2.24,2.37-4.14,3.19-5.72,2.46-1.58-.59-2.33-2.3-2.27-5.13,0-2.37.53-5.19,1.58-8.48,1.05-3.29,2.6-6.47,4.63-9.56,2.04-3.09,4.24-5.03,6.61-5.82,3.48-1.25,6.71-.1,9.66,3.45.33.39.48.85.44,1.38-.03.53-.25.95-.64,1.28-.39.33-.85.48-1.38.44-.53-.03-.95-.25-1.28-.64-2.3-2.76-4.63-3.29-7-1.58-2.7,1.91-4.95,5.34-6.75,10.3-1.81,4.96-2.51,8.5-2.12,10.6.39-.33.85-.75,1.38-1.28,2.63-2.83,5.85-6.87,9.66-12.13.85-1.18,1.44-2,1.77-2.47.53-.66,1.22-.87,2.07-.64.85.23,1.31.81,1.38,1.73.13,3.22.39,6.08.79,8.58.39,2.5.79,4.39,1.18,5.67s.85,2.35,1.38,3.2c.53.85.94,1.4,1.23,1.63.3.23.61.35.94.35.92.2,2.09-.25,3.5-1.33,1.41-1.08,3.22-3.19,5.42-6.31,2.2-3.12,4.45-7.08,6.75-11.88.26-.53.64-.87,1.13-1.04Z"/>
  </g>
  <g>
    <path class="st0" d="M250.7,135.87c.25-.04.52-.27.81-.67.29-.41.44-1.16.44-2.26v-15.59l-8.17,18.87-8.3-18.84v15.41c0,1.12.18,1.91.55,2.35.36.45.69.69.98.73h-4.62c.31-.04.66-.28,1.03-.7.37-.43.56-1.22.56-2.39v-15.62c0-1-.18-1.68-.53-2.06-.35-.37-.71-.6-1.06-.69h4.21l7.64,17.43,7.52-17.43h3.77c-.27.04-.56.26-.87.65-.31.4-.47,1.12-.47,2.18v15.81c0,1.04.16,1.76.47,2.15s.6.61.87.65h-4.83Z"/>
    <path class="st0" d="M269.09,119.5c.95-1.73,2.28-3.07,3.99-4.02s3.7-1.44,5.94-1.44c1.87,0,3.62.41,5.26,1.23,1.63.82,2.94,2.05,3.93,3.7.99,1.64,1.48,3.62,1.48,5.93s-.47,4.17-1.42,5.9c-.95,1.73-2.28,3.07-3.99,4.02-1.72.96-3.7,1.43-5.94,1.43-1.87,0-3.62-.41-5.26-1.23-1.63-.82-2.94-2.05-3.93-3.7-.99-1.64-1.48-3.62-1.48-5.93s.47-4.17,1.42-5.89ZM286.02,120.23c-.78-1.53-1.85-2.72-3.21-3.59-1.36-.86-2.9-1.29-4.6-1.29-1.56,0-2.95.4-4.16,1.19-1.22.79-2.17,1.91-2.85,3.35-.69,1.45-1.03,3.12-1.03,5.04s.39,3.6,1.17,5.13c.78,1.53,1.85,2.72,3.21,3.59,1.36.86,2.9,1.29,4.6,1.29,1.56,0,2.95-.4,4.16-1.19s2.17-1.91,2.85-3.35c.69-1.44,1.03-3.12,1.03-5.04s-.39-3.6-1.17-5.13Z"/>
    <path class="st0" d="M310.58,124.41c.71-.45,1.24-1.03,1.61-1.75.36-.72.55-1.47.55-2.26s-.17-1.58-.51-2.29c-.34-.72-.87-1.3-1.58-1.76-.71-.46-1.57-.69-2.59-.69h-2.65v17.34c0,.83.1,1.46.31,1.89.21.43.44.71.69.84.25.14.38.18.38.14h-4.96s.12-.01.37-.16c.25-.15.47-.43.67-.84.2-.42.3-1.04.3-1.87v-15.59c0-.85-.1-1.5-.3-1.95-.2-.45-.42-.75-.67-.9-.25-.16-.37-.2-.37-.14h6.17c1.62,0,2.96.27,4.01.8,1.05.53,1.81,1.22,2.28,2.06.47.84.7,1.76.7,2.76,0,.83-.2,1.65-.59,2.45-.39.8-.96,1.5-1.7,2.09-.74.59-1.6,1-2.57,1.23l-.5.09,5.49,6.99c.73.81,1.33,1.43,1.81,1.87.48.44.83.73,1.04.87.22.15.35.23.39.25h-3.65l-8.48-10.79h1.87c.96,0,1.79-.22,2.5-.67Z"/>
    <path class="st0" d="M329.14,135.87c0,.06.12.02.37-.14.25-.16.47-.47.67-.94.2-.47.3-1.15.3-2.04v-15.31c0-.85-.1-1.5-.3-1.95-.2-.45-.42-.75-.67-.92-.25-.17-.37-.22-.37-.16h11.29v3.12c-.37-1.25-1.5-1.87-3.37-1.87h-4.34v8.86h5.37c.42,0,.77-.07,1.06-.2s.51-.28.66-.42c.15-.15.23-.24.25-.28v3.02s-.1-.13-.25-.28c-.15-.15-.36-.28-.64-.41-.28-.12-.63-.19-1.04-.19h-5.4v8.86h4.87c.94,0,1.74-.19,2.42-.58.67-.38,1.16-.88,1.45-1.48l-.56,3.31h-11.76Z"/>
    <path class="st0" d="M373.68,114.42c-.29.06-.58.3-.86.7-.28.41-.42,1.12-.42,2.14v19.49l-15.97-18.62v14.94c0,1,.18,1.7.53,2.11.35.41.7.64,1.03.7h-4.4c.29-.06.59-.3.89-.7.3-.41.45-1.12.45-2.14v-15.59c0-.71-.24-1.35-.72-1.93-.48-.58-1.08-.95-1.81-1.09h3.87l14.63,17.06v-14.22c0-1.6-.54-2.55-1.62-2.84h4.4Z"/>
    <path class="st0" d="M387.29,119.5c.95-1.73,2.28-3.07,3.99-4.02s3.7-1.44,5.94-1.44c1.87,0,3.62.41,5.25,1.23,1.63.82,2.94,2.05,3.93,3.7.99,1.64,1.48,3.62,1.48,5.93s-.47,4.17-1.42,5.9c-.95,1.73-2.28,3.07-3.99,4.02-1.71.96-3.7,1.43-5.94,1.43-1.87,0-3.62-.41-5.25-1.23-1.63-.82-2.94-2.05-3.93-3.7-.99-1.64-1.48-3.62-1.48-5.93s.47-4.17,1.42-5.89ZM404.23,120.23c-.78-1.53-1.85-2.72-3.21-3.59-1.36-.86-2.9-1.29-4.6-1.29-1.56,0-2.95.4-4.16,1.19-1.22.79-2.17,1.91-2.85,3.35-.69,1.45-1.03,3.12-1.03,5.04s.39,3.6,1.17,5.13c.78,1.53,1.85,2.72,3.21,3.59,1.36.86,2.9,1.29,4.6,1.29,1.56,0,2.95-.4,4.16-1.19,1.22-.79,2.17-1.91,2.85-3.35.69-1.44,1.03-3.12,1.03-5.04s-.39-3.6-1.17-5.13Z"/>
  </g>
  <g id="HATCH">
    <polygon class="st1" points="523.19 23.78 523.2 23.77 523.22 23.76 523.23 23.75 523.24 23.74 523.25 23.73 523.27 23.72 523.28 23.71 523.29 23.7 523.32 23.68 523.35 23.66 523.38 23.65 523.41 23.63 523.44 23.62 523.47 23.6 523.5 23.59 523.54 23.58 523.57 23.56 523.61 23.55 523.64 23.54 523.68 23.53 523.71 23.53 523.75 23.52 523.78 23.51 523.82 23.51 523.86 23.5 523.89 23.5 523.93 23.5 523.96 23.5 524 23.5 524.04 23.5 524.07 23.5 524.09 23.5 524.11 23.51 524.13 23.51 524.14 23.51 524.16 23.51 524.18 23.52 524.2 23.52 524.21 23.53 524.23 23.53 524.25 23.53 524.26 23.54 524.28 23.54 524.3 23.55 524.31 23.56 524.33 23.56 524.34 23.57 524.36 23.58 524.38 23.58 524.39 23.59 524.41 23.6 524.42 23.61 524.44 23.62 524.45 23.63 524.47 23.64 524.48 23.65 524.49 23.66 524.51 23.67 524.52 23.68 524.53 23.69 524.55 23.7 524.56 23.71 524.57 23.73 524.58 23.74 524.59 23.75 524.61 23.77 524.62 23.78 524.63 23.8 524.64 23.81 524.65 23.83 524.66 23.84 524.67 23.86 524.68 23.88 524.69 23.89 524.69 23.91 524.7 23.93 524.71 23.95 524.72 23.97 524.72 23.99 524.73 24.01 524.73 24.03 524.74 24.05 524.75 24.07 524.75 24.09 524.75 24.11 524.76 24.14 524.76 24.16 524.76 24.18 524.77 24.21 524.77 24.23 524.77 24.26 524.77 24.28 524.77 24.31 524.77 24.33 524.77 24.36 524.77 24.39 524.77 24.42 524.76 24.47 524.76 24.53 524.75 24.59 524.74 24.66 524.43 25.82 524.1 26.98 523.75 28.12 523.37 29.27 522.98 30.4 522.57 31.53 521.69 33.76 520.74 35.96 519.71 38.13 518.61 40.27 517.45 42.37 516.22 44.44 514.92 46.47 513.57 48.46 512.16 50.42 510.69 52.33 509.17 54.2 507.6 56.03 505.98 57.82 504.32 59.56 502.61 61.26 500.86 62.91 499.07 64.51 497.24 66.07 495.37 67.59 493.47 69.06 491.53 70.48 489.55 71.85 487.55 73.18 485.51 74.46 483.45 75.7 481.36 76.88 479.25 78.02 477.11 79.11 474.94 80.15 472.76 81.14 470.56 82.09 468.33 82.99 466.09 83.84 463.84 84.64 461.56 85.41 459.27 86.12 456.97 86.8 454.65 87.43 452.32 88.03 447.62 89.09 442.89 90.01 438.12 90.77 433.33 91.4 428.52 91.87 423.7 92.19 418.88 92.35 416.47 92.36 414.07 92.33 411.66 92.25 409.26 92.13 406.87 91.96 404.48 91.75 402.1 91.48 399.73 91.16 397.37 90.8 395.01 90.38 392.67 89.92 390.33 89.42 385.67 88.3 381.04 87.04 376.43 85.68 353.57 78 344.41 75.05 339.81 73.73 335.17 72.56 332.84 72.03 330.51 71.56 328.16 71.14 325.8 70.78 323.43 70.48 321.05 70.23 318.66 70.05 316.26 69.92 313.86 69.85 311.45 69.83 309.04 69.86 306.63 69.94 304.22 70.07 301.82 70.25 299.41 70.47 297.02 70.74 292.24 71.4 287.51 72.22 282.82 73.18 278.18 74.29 273.58 75.55 269.02 76.97 264.49 78.54 259.99 80.27 255.5 82.17 242.12 88.6 239.89 89.62 238.78 90.1 237.66 90.55 236.55 90.98 235.43 91.38 234.31 91.74 233.19 92.07 232.07 92.36 231.51 92.49 230.95 92.61 230.39 92.72 229.83 92.81 229.26 92.9 228.7 92.97 228.14 93.03 227.58 93.07 227.01 93.1 226.45 93.12 225.88 93.13 225.32 93.11 224.75 93.09 224.19 93.05 223.62 92.99 223.06 92.91 222.49 92.82 221.92 92.71 221.35 92.59 220.78 92.44 220.21 92.28 219.64 92.1 219.07 91.9 218.5 91.68 217.93 91.45 217.36 91.19 216.78 90.91 216.21 90.61 215.63 90.29 215.06 89.94 216.56 84.06 216.97 84.63 217.39 85.16 217.6 85.41 217.81 85.66 218.02 85.9 218.24 86.13 218.45 86.35 218.67 86.57 218.89 86.78 219.11 86.99 219.33 87.18 219.55 87.37 219.77 87.56 219.99 87.73 220.22 87.9 220.45 88.07 220.67 88.22 220.9 88.37 221.13 88.52 221.36 88.65 221.59 88.78 221.83 88.91 222.06 89.03 222.3 89.14 222.53 89.25 222.77 89.35 223.01 89.44 223.25 89.53 223.49 89.61 223.73 89.69 223.97 89.76 224.22 89.83 224.46 89.89 224.71 89.95 224.95 90 225.2 90.04 225.45 90.08 225.7 90.12 225.95 90.15 226.2 90.17 226.45 90.19 226.7 90.21 226.96 90.22 227.21 90.22 227.47 90.22 227.72 90.22 228.24 90.2 228.75 90.16 229.27 90.11 229.8 90.03 230.32 89.95 230.85 89.85 231.39 89.73 231.92 89.6 232.46 89.45 233 89.29 233.54 89.12 234.08 88.94 235.18 88.54 236.28 88.1 237.39 87.63 238.5 87.12 240.74 86.02 252.08 80.04 254.33 78.95 256.58 77.92 258.82 76.94 261.07 76.02 263.31 75.16 265.55 74.34 267.79 73.57 270.03 72.85 272.28 72.18 274.54 71.54 276.8 70.95 281.36 69.89 285.97 68.97 290.63 68.19 295.35 67.55 300.1 67.06 304.88 66.72 307.27 66.62 309.67 66.56 312.07 66.54 314.47 66.57 316.86 66.65 319.25 66.77 321.64 66.95 324.02 67.17 326.39 67.45 328.75 67.77 331.11 68.14 333.45 68.55 338.13 69.49 342.78 70.57 347.41 71.76 352.02 73.05 379.44 81.41 384.02 82.69 388.62 83.88 393.25 84.95 397.9 85.88 400.24 86.29 402.59 86.65 407.31 87.26 412.05 87.7 416.81 87.98 421.58 88.1 426.36 88.05 431.13 87.84 435.89 87.47 438.27 87.22 440.64 86.93 443.01 86.6 445.36 86.22 447.71 85.8 450.05 85.34 452.38 84.83 454.7 84.28 457 83.67 459.29 83.02 461.57 82.33 463.82 81.58 466.06 80.78 468.28 79.93 470.48 79.03 472.66 78.07 474.82 77.06 476.95 76 479.06 74.89 481.14 73.72 483.2 72.51 485.22 71.24 487.22 69.93 489.18 68.56 491.11 67.15 493.01 65.69 494.87 64.18 496.69 62.63 498.48 61.03 500.23 59.39 501.93 57.71 503.6 55.98 505.22 54.21 506.79 52.39 508.32 50.54 509.8 48.66 511.23 46.73 512.61 44.78 513.94 42.79 515.21 40.77 516.42 38.72 517.58 36.65 518.67 34.56 519.71 32.44 520.68 30.3 521.58 28.14 522.42 25.97 523.19 23.78"/>
  </g>
</svg>