<?xml version="1.0" encoding="UTF-8"?>
<svg version="1.1" xmlns="http://www.w3.org/2000/svg" width="128" height="128">
<path d="M0 0 C0.66 0.33 1.32 0.66 2 1 C3.18305527 13.3037748 -4.3076989 24.48291513 -11.25 34.125 C-12.11625 35.053125 -12.11625 35.053125 -13 36 C-13.66 36 -14.32 36 -15 36 C-15.33 36.99 -15.66 37.98 -16 39 C-16.66 39 -17.32 39 -18 39 C-18.33 39.99 -18.66 40.98 -19 42 C-19.66 42 -20.32 42 -21 42 C-21 42.66 -21 43.32 -21 44 C-26.10569531 46.97058636 -29.94098275 48.75737716 -36 48 C-38.03039449 47.41929046 -39.93165359 46.72587796 -41.875 45.8984375 C-44.02605438 44.95032233 -44.02605438 44.95032233 -46.4375 44.2265625 C-48.91559435 43.360818 -50.88350843 42.55834506 -53 41 C-54.38305331 38.05133035 -54.70938352 35.22003064 -55 32 C-55.20625 31.154375 -55.4125 30.30875 -55.625 29.4375 C-56.63058162 22.90121949 -56.52554842 18.68613296 -53 13 C-50.85856675 11.2243135 -48.88006882 9.7363514 -46.5625 8.25 C-45.98951172 7.86457031 -45.41652344 7.47914062 -44.82617188 7.08203125 C-43.23684919 6.02492134 -41.61920686 5.01074086 -40 4 C-39.36449219 3.56042969 -38.72898437 3.12085937 -38.07421875 2.66796875 C-34.75618808 1.5994504 -31.60579472 2.48225713 -28.25 3.0625 C-18.38972675 4.52514649 -9.43633524 3.14544508 0 0 Z " fill="#000000" transform="translate(64,74)"/>
<path d="M0 0 C1.02637115 0.97291432 2.02569447 1.97494939 3 3 C4.31831069 3.77610226 5.65273067 4.5253324 7 5.25 C11.22660149 7.88092321 12.79834753 10.03316979 14 15 C14.07507814 18.75968219 13.63051012 22.29829545 13 26 C12.88140625 26.8971875 12.7628125 27.794375 12.640625 28.71875 C11.82470388 32.82308051 11.11427285 35.22146083 7.6015625 37.67578125 C5.68074934 38.65197534 3.74375298 39.59688599 1.79296875 40.51171875 C-4.8331001 44.04253306 -8.62097584 50.51227362 -12 57 C-15.41738889 56.38975198 -17.46881054 55.39002697 -20 53 C-25.64974879 40.54081715 -27.72941205 24.83702382 -24.04296875 11.55078125 C-22.43196707 8.04749188 -20.71631061 5.65310673 -17.875 3.0625 C-4.52007973 -1.87301401 -4.52007973 -1.87301401 0 0 Z " fill="#000000" transform="translate(82,5)"/>
<path d="M0 0 C8.9110797 4.49626691 21.12429068 14.40078271 24.34765625 24.16796875 C25.43984933 30.49055312 21.72707509 37.02727102 18.4609375 42.19140625 C16.69921875 44.203125 16.69921875 44.203125 12.88671875 45.328125 C11.49032723 45.31480065 10.09398194 45.27184508 8.69921875 45.203125 C7.9515625 45.28175781 7.20390625 45.36039063 6.43359375 45.44140625 C2.25581914 45.80376425 -0.58566593 45.50883386 -3.98828125 42.953125 C-12.6732553 34.38905546 -16.3879862 21.24254864 -16.49853516 9.37573242 C-16.48379126 5.98217922 -16.40814534 2.59503481 -16.30078125 -0.796875 C-10.98303465 -2.5694572 -5.26572326 -1.82378191 0 0 Z " fill="#000000" transform="translate(84.30078125,73.796875)"/>
<path d="M0 0 C7.92251744 2.96006146 13.78478351 8.16645648 19.78515625 13.92578125 C21.81966725 16.02857124 21.81966725 16.02857124 24 17 C23.67 19.31 23.34 21.62 23 24 C11.01386375 28.70883924 -1.40373982 31.56872551 -14 27 C-18.85765608 24.00272284 -20.13603756 21.2768861 -21.546875 15.92578125 C-22.22171645 12.4992156 -22.61085575 10.09156354 -20.86328125 6.96875 C-19.33107766 5.1470873 -17.79792636 3.55954961 -16 2 C-15.38640625 1.44183594 -14.7728125 0.88367187 -14.140625 0.30859375 C-9.79465122 -2.3481603 -4.76544578 -1.0178622 0 0 Z " fill="#000000" transform="translate(43,47)"/>
<path d="M0 0 C3.00669652 1.18590819 5.03909852 2.39824525 7 5 C8.20933535 9.08574514 8.48768176 12.76950764 8 17 C6.0625 20 6.0625 20 3 22 C2.48695312 22.37640625 1.97390625 22.7528125 1.4453125 23.140625 C-6.85083332 28.37641481 -19.68679328 27.74622626 -29 26 C-29.33 25.01 -29.66 24.02 -30 23 C-29.67 22.34 -29.34 21.68 -29 21 C-28.34 21 -27.68 21 -27 21 C-26.7525 20.13375 -26.505 19.2675 -26.25 18.375 C-24.92199976 14.78939936 -23.31369152 12.03672013 -21 9 C-20.34 9 -19.68 9 -19 9 C-19 8.34 -19 7.68 -19 7 C-13.31080384 1.82800349 -7.88172141 -2.39266543 0 0 Z " fill="#000000" transform="translate(98,44)"/>
</svg>
